<?xml version="1.0" encoding="utf-8"?>
<!-- Generator: Adobe Illustrator 25.4.0, SVG Export Plug-In . SVG Version: 6.00 Build 0)  -->
<svg version="1.1" id="Capa_1" xmlns="http://www.w3.org/2000/svg" xmlns:xlink="http://www.w3.org/1999/xlink" x="0px" y="0px"
	 viewBox="0 0 154 32" style="enable-background:new 0 0 154 32;" xml:space="preserve">
<style type="text/css">
	.st0{fill:#465FFF;}
	.st1{fill:#FFFFFF;fill-opacity:0.7;}
	.st2{fill:#5B5B5B;}
</style>
<path class="st0" d="M0,8.4C0,3.8,3.8,0,8.4,0h15.2C28.2,0,32,3.8,32,8.4v15.2c0,4.7-3.8,8.4-8.4,8.4H8.4C3.8,32,0,28.2,0,23.6V8.4z
	"/>
<path class="st1" d="M11.5,8.8c0.1,0.2,0.2,0.3,0.3,0.4c0.1,0.1,0.1,0.2,0.2,0.3c0.2,0.3,0.4,0.5,0.6,0.8c0.2,0.3,0.4,0.6,0.6,0.9
	c0.2,0.3,0.4,0.6,0.6,0.9c0.2,0.3,0.4,0.6,0.6,0.9c0.2,0.2,0.3,0.4,0.5,0.6c0.2,0.3,0.4,0.6,0.7,0.9c0.2,0.3,0.4,0.5,0.6,0.8
	c0.2,0.2,0.4,0.5,0.5,0.7c0.1,0.1,0.1,0.2,0,0.3c-0.1,0.2-0.3,0.4-0.4,0.6c-0.2,0.2-0.4,0.5-0.6,0.7c-0.1,0.2-0.3,0.3-0.4,0.5
	c-0.2,0.2-0.4,0.5-0.6,0.7c-0.1,0.1-0.1,0.2-0.2,0.2c-0.2,0.3-0.4,0.5-0.6,0.8c-0.2,0.3-0.4,0.6-0.6,0.9c-0.2,0.3-0.4,0.6-0.6,0.9
	c-0.2,0.3-0.4,0.6-0.6,0.9c-0.2,0.2-0.3,0.4-0.5,0.6c0,0.1-0.1,0.1-0.1,0.2l0,0c0.1,0,0.2,0,0.3,0c1.1,0,2.2,0,3.4,0
	c1.7,0,3.4,0,5.2,0c1.2,0,2.4,0,3.7,0c0.1,0,0.2,0,0.3,0.2c0.1,0.2,0.3,0.4,0.4,0.6c0.2,0.3,0.4,0.6,0.5,0.9
	c0.1,0.2,0.3,0.4,0.4,0.6v0.1c0.1,0.1,0,0.1,0,0.2s0,0.1-0.1,0.2c-0.1,0.2-0.1,0.4-0.2,0.6c0,0.1-0.1,0.1-0.1,0.1
	c-0.4,0-0.8,0-1.2,0c-1.9,0-3.8,0-5.6,0c-1.6,0-3.3,0-4.9,0s-3.3,0-4.9,0c-0.4,0-0.8,0-1.2,0c-0.4,0-0.8,0-1.1,0
	c-0.1,0-0.2,0-0.3-0.2C6,26.2,5.9,26,5.8,25.8c-0.2-0.3-0.4-0.6-0.5-0.8c0,0-0.1-0.1,0-0.1c0.1-0.1,0.1-0.2,0.2-0.3
	C5.6,24.3,5.8,24,6,23.7s0.5-0.6,0.7-0.9c0.1-0.2,0.2-0.3,0.4-0.5c0.2-0.3,0.4-0.5,0.6-0.8C7.8,21.3,7.9,21.2,8,21
	c0.2-0.3,0.4-0.5,0.6-0.8C8.7,20,8.8,19.9,9,19.7c0.2-0.3,0.4-0.5,0.6-0.8c0.1-0.2,0.2-0.3,0.3-0.5c0.2-0.3,0.4-0.5,0.6-0.8
	c0.1-0.2,0.2-0.3,0.4-0.5c0.2-0.3,0.4-0.5,0.6-0.8c0.1-0.1,0.2-0.3,0.3-0.4c0,0,0,0,0-0.1c-0.2-0.3-0.4-0.5-0.6-0.8
	c-0.2-0.3-0.4-0.6-0.6-0.9c-0.2-0.3-0.4-0.6-0.6-0.8c-0.2-0.3-0.4-0.6-0.6-0.9C9,12.3,8.8,12,8.6,11.7S8.2,11.1,8,10.8
	c-0.2-0.2-0.3-0.4-0.5-0.6C7.2,9.9,7,9.6,6.8,9.3C6.6,9.1,6.4,8.8,6.2,8.6C6,8.3,5.8,8,5.6,7.7C5.5,7.5,5.3,7.4,5.2,7.2V7.1
	C5.3,7,5.4,6.9,5.4,6.8c0.1-0.2,0.3-0.4,0.4-0.7C6,5.9,6.1,5.7,6.2,5.5h0.1c0.2,0,0.4,0,0.7,0c1,0,2,0,3.1,0c1.5,0,2.9,0,4.4,0
	s2.9,0,4.4,0c0.4,0,0.7,0,1.1,0c1.5,0,2.9,0,4.4,0c0.4,0,0.7,0,1.1,0c0.1,0,0.1,0,0.1,0.1c0.1,0.2,0.1,0.5,0.2,0.7c0,0,0,0,0,0.1
	s0,0.1,0,0.2c-0.1,0.1-0.1,0.2-0.2,0.3c-0.1,0.2-0.3,0.4-0.4,0.7c-0.2,0.3-0.4,0.7-0.6,1c-0.1,0.1-0.2,0.3-0.2,0.4h-0.1
	c-0.7,0-1.4,0-2.1,0c-1.1,0-2.3,0-3.4,0c-0.3,0-0.7,0-1,0c-1.1,0-2.3,0-3.4,0c-0.8,0-1.7,0-2.5,0C11.6,8.8,11.6,8.8,11.5,8.8z"/>
<g>
	<g>
		<path class="st2" d="M41.1,22.9c-1,0-1.8-0.2-2.5-0.5c-0.7-0.3-1.3-0.8-1.9-1.4l1.7-1.7c0.4,0.4,0.8,0.8,1.3,1
			c0.5,0.2,1,0.4,1.6,0.4c0.5,0,1-0.1,1.3-0.3s0.5-0.5,0.5-0.8c0-0.3-0.1-0.6-0.3-0.8c-0.2-0.2-0.5-0.4-0.8-0.5s-0.7-0.3-1.1-0.4
			c-0.4-0.1-0.8-0.3-1.2-0.5s-0.8-0.4-1.1-0.7c-0.3-0.3-0.6-0.6-0.8-1c-0.2-0.4-0.3-0.9-0.3-1.5c0-0.7,0.2-1.4,0.5-1.9
			s0.8-0.9,1.5-1.2c0.6-0.3,1.4-0.4,2.2-0.4c0.8,0,1.6,0.1,2.3,0.4s1.2,0.7,1.7,1.2L43.9,14c-0.4-0.4-0.7-0.6-1.1-0.8
			c-0.4-0.2-0.8-0.3-1.2-0.3c-0.5,0-0.8,0.1-1.1,0.3c-0.3,0.2-0.4,0.4-0.4,0.7c0,0.3,0.1,0.5,0.3,0.7c0.2,0.2,0.5,0.3,0.8,0.5
			s0.7,0.3,1.1,0.4c0.4,0.1,0.8,0.3,1.2,0.5c0.4,0.2,0.8,0.4,1.1,0.7c0.3,0.3,0.6,0.6,0.8,1c0.2,0.4,0.3,0.9,0.3,1.6
			c0,1.1-0.4,2-1.2,2.7C43.7,22.5,42.5,22.9,41.1,22.9z"/>
		<path class="st2" d="M47.3,22.7V10.8H50v11.9H47.3z"/>
		<path class="st2" d="M57.9,22.9c-0.9,0-1.7-0.2-2.4-0.5c-0.8-0.3-1.4-0.8-2-1.3c-0.6-0.6-1-1.2-1.3-2c-0.3-0.7-0.5-1.5-0.5-2.4
			c0-0.9,0.2-1.7,0.5-2.4c0.3-0.7,0.8-1.4,1.4-1.9c0.6-0.6,1.3-1,2-1.3c0.8-0.3,1.6-0.5,2.5-0.5c1,0,2,0.2,2.8,0.6
			c0.8,0.4,1.5,0.9,2.1,1.5l-1.8,1.8c-0.4-0.5-0.8-0.9-1.3-1.1C59.2,13.2,58.6,13,58,13c-0.7,0-1.3,0.2-1.9,0.5
			c-0.5,0.3-1,0.7-1.3,1.3c-0.3,0.6-0.5,1.2-0.5,1.9c0,0.7,0.2,1.4,0.5,1.9c0.3,0.6,0.7,1,1.2,1.3s1.1,0.5,1.8,0.5s1.3-0.1,1.8-0.4
			c0.5-0.3,0.9-0.6,1.1-1.2c0.3-0.5,0.4-1.1,0.4-1.8l1.8,1.2l-5.3-0.1V16h6.2v0.4c0,1.4-0.3,2.6-0.8,3.6c-0.5,1-1.2,1.7-2.1,2.2
			C60.1,22.6,59,22.9,57.9,22.9z"/>
		<path class="st2" d="M65.4,22.7V10.8h1.9l4.7,7.3h-1l4.7-7.3h1.9v11.9H75v-7.4l0.5,0.1l-3,4.7h-1.7l-3-4.7l0.5-0.1v7.4H65.4z"/>
		<path class="st2" d="M79,22.7l4.7-11.9h2.4l4.7,11.9h-2.8l-3.5-9.8h1l-3.6,9.8H79z M81.7,20.6v-2.2h6.5v2.2H81.7z"/>
		<path class="st0" d="M91.3,22.7l4.7-11.9h2.4l4.7,11.9h-2.8l-3.5-9.8h1L94,22.7H91.3z M93.9,20.6v-2.2h6.5v2.2H93.9z"/>
		<path class="st0" d="M104.4,22.7V10.8h2.7v11.9H104.4z M106.2,22.7v-2.3h2.9c0.7,0,1.3-0.1,1.9-0.4c0.5-0.3,0.9-0.7,1.2-1.3
			c0.3-0.5,0.4-1.2,0.4-1.9c0-0.7-0.1-1.4-0.4-1.9c-0.3-0.5-0.7-1-1.2-1.2c-0.5-0.3-1.2-0.4-1.9-0.4h-3v-2.3h3
			c0.9,0,1.7,0.1,2.5,0.4c0.8,0.3,1.4,0.7,2,1.2c0.6,0.5,1,1.2,1.3,1.9c0.3,0.7,0.5,1.5,0.5,2.4c0,0.9-0.2,1.7-0.5,2.4
			c-0.3,0.7-0.8,1.4-1.3,1.9s-1.2,0.9-2,1.2c-0.8,0.3-1.6,0.4-2.5,0.4H106.2z"/>
		<path class="st0" d="M117.1,22.7V10.8h1.9l4.7,7.3h-1l4.7-7.3h1.9v11.9h-2.6v-7.4l0.5,0.1l-3,4.7h-1.7l-3-4.7l0.5-0.1v7.4H117.1z"
			/>
		<path class="st0" d="M131.5,22.7V10.8h2.7v11.9H131.5z"/>
		<path class="st0" d="M136.4,22.7V10.8h1.9l0.8,2.4v9.5H136.4z M144.6,22.7l-7-9l0.7-2.9l7,9L144.6,22.7z M144.6,22.7l-0.7-2.4
			v-9.5h2.7v11.9H144.6z"/>
	</g>
</g>
</svg>
